<mxfile host="app.diagrams.net" agent="Mozilla/5.0 (Windows NT 10.0; Win64; x64) AppleWebKit/537.36 (KHTML, like Gecko) Chrome/137.0.0.0 Safari/537.36" version="26.0.16">
  <diagram name="PÃ gina-1" id="0FL7q_KWTkIBtJvTeWrY">
    <mxGraphModel dx="2629" dy="800" grid="1" gridSize="10" guides="1" tooltips="1" connect="1" arrows="1" fold="1" page="1" pageScale="1" pageWidth="827" pageHeight="1169" math="0" shadow="0">
      <root>
        <mxCell id="0" />
        <mxCell id="1" parent="0" />
        <mxCell id="Z2USR4ci6b5LXl39ZoTv-1" value="RESERVA" style="rounded=0;whiteSpace=wrap;html=1;" vertex="1" parent="1">
          <mxGeometry x="340" y="410" width="120" height="60" as="geometry" />
        </mxCell>
        <mxCell id="Z2USR4ci6b5LXl39ZoTv-2" value="&lt;u&gt;&lt;b&gt;id_reserva&lt;/b&gt;&lt;/u&gt;" style="ellipse;whiteSpace=wrap;html=1;" vertex="1" parent="1">
          <mxGeometry x="210" y="330" width="90" height="50" as="geometry" />
        </mxCell>
        <mxCell id="Z2USR4ci6b5LXl39ZoTv-3" value="fecha" style="ellipse;whiteSpace=wrap;html=1;" vertex="1" parent="1">
          <mxGeometry x="290" y="280" width="90" height="50" as="geometry" />
        </mxCell>
        <mxCell id="Z2USR4ci6b5LXl39ZoTv-5" value="hora_inicio" style="ellipse;whiteSpace=wrap;html=1;" vertex="1" parent="1">
          <mxGeometry x="400" y="290" width="90" height="50" as="geometry" />
        </mxCell>
        <mxCell id="Z2USR4ci6b5LXl39ZoTv-6" value="hora_final" style="ellipse;whiteSpace=wrap;html=1;" vertex="1" parent="1">
          <mxGeometry x="500" y="320" width="100" height="50" as="geometry" />
        </mxCell>
        <mxCell id="Z2USR4ci6b5LXl39ZoTv-7" value="" style="endArrow=classic;html=1;rounded=0;exitX=0.5;exitY=0;exitDx=0;exitDy=0;entryX=1;entryY=1;entryDx=0;entryDy=0;" edge="1" parent="1" source="Z2USR4ci6b5LXl39ZoTv-1" target="Z2USR4ci6b5LXl39ZoTv-2">
          <mxGeometry width="50" height="50" relative="1" as="geometry">
            <mxPoint x="390" y="300" as="sourcePoint" />
            <mxPoint x="440" y="250" as="targetPoint" />
          </mxGeometry>
        </mxCell>
        <mxCell id="Z2USR4ci6b5LXl39ZoTv-8" value="" style="endArrow=classic;html=1;rounded=0;exitX=0.5;exitY=0;exitDx=0;exitDy=0;entryX=0.664;entryY=1.017;entryDx=0;entryDy=0;entryPerimeter=0;" edge="1" parent="1" source="Z2USR4ci6b5LXl39ZoTv-1" target="Z2USR4ci6b5LXl39ZoTv-3">
          <mxGeometry width="50" height="50" relative="1" as="geometry">
            <mxPoint x="390" y="300" as="sourcePoint" />
            <mxPoint x="440" y="250" as="targetPoint" />
          </mxGeometry>
        </mxCell>
        <mxCell id="Z2USR4ci6b5LXl39ZoTv-9" value="" style="endArrow=classic;html=1;rounded=0;entryX=0.302;entryY=0.889;entryDx=0;entryDy=0;entryPerimeter=0;exitX=0.5;exitY=0;exitDx=0;exitDy=0;" edge="1" parent="1" source="Z2USR4ci6b5LXl39ZoTv-1" target="Z2USR4ci6b5LXl39ZoTv-5">
          <mxGeometry width="50" height="50" relative="1" as="geometry">
            <mxPoint x="390" y="400" as="sourcePoint" />
            <mxPoint x="440" y="250" as="targetPoint" />
          </mxGeometry>
        </mxCell>
        <mxCell id="Z2USR4ci6b5LXl39ZoTv-10" value="" style="endArrow=classic;html=1;rounded=0;exitX=0.5;exitY=0;exitDx=0;exitDy=0;entryX=0.044;entryY=0.676;entryDx=0;entryDy=0;entryPerimeter=0;" edge="1" parent="1" source="Z2USR4ci6b5LXl39ZoTv-1" target="Z2USR4ci6b5LXl39ZoTv-6">
          <mxGeometry width="50" height="50" relative="1" as="geometry">
            <mxPoint x="390" y="300" as="sourcePoint" />
            <mxPoint x="440" y="250" as="targetPoint" />
          </mxGeometry>
        </mxCell>
        <mxCell id="Z2USR4ci6b5LXl39ZoTv-11" value="SALA&amp;nbsp;" style="rounded=0;whiteSpace=wrap;html=1;" vertex="1" parent="1">
          <mxGeometry x="900" y="660" width="120" height="60" as="geometry" />
        </mxCell>
        <mxCell id="Z2USR4ci6b5LXl39ZoTv-12" value="TRABAJADOR" style="rounded=0;whiteSpace=wrap;html=1;" vertex="1" parent="1">
          <mxGeometry x="-60" y="660" width="120" height="60" as="geometry" />
        </mxCell>
        <mxCell id="Z2USR4ci6b5LXl39ZoTv-13" value="capacidad" style="ellipse;whiteSpace=wrap;html=1;" vertex="1" parent="1">
          <mxGeometry x="935" y="850" width="100" height="60" as="geometry" />
        </mxCell>
        <mxCell id="Z2USR4ci6b5LXl39ZoTv-14" value="recursos" style="ellipse;whiteSpace=wrap;html=1;" vertex="1" parent="1">
          <mxGeometry x="840" y="800" width="100" height="50" as="geometry" />
        </mxCell>
        <mxCell id="Z2USR4ci6b5LXl39ZoTv-15" value="&lt;u&gt;&lt;b&gt;id_sala&lt;/b&gt;&lt;/u&gt;" style="ellipse;whiteSpace=wrap;html=1;" vertex="1" parent="1">
          <mxGeometry x="1080" y="730" width="80" height="50" as="geometry" />
        </mxCell>
        <mxCell id="Z2USR4ci6b5LXl39ZoTv-16" value="nombre_sala" style="ellipse;whiteSpace=wrap;html=1;" vertex="1" parent="1">
          <mxGeometry x="1060" y="815" width="90" height="60" as="geometry" />
        </mxCell>
        <mxCell id="Z2USR4ci6b5LXl39ZoTv-17" value="" style="rhombus;whiteSpace=wrap;html=1;" vertex="1" parent="1">
          <mxGeometry x="920" y="400" width="80" height="80" as="geometry" />
        </mxCell>
        <mxCell id="Z2USR4ci6b5LXl39ZoTv-18" value="" style="endArrow=classic;html=1;rounded=0;exitX=1;exitY=0.5;exitDx=0;exitDy=0;entryX=0;entryY=0.5;entryDx=0;entryDy=0;" edge="1" parent="1" source="Z2USR4ci6b5LXl39ZoTv-1" target="Z2USR4ci6b5LXl39ZoTv-17">
          <mxGeometry width="50" height="50" relative="1" as="geometry">
            <mxPoint x="420" y="640" as="sourcePoint" />
            <mxPoint x="470" y="590" as="targetPoint" />
          </mxGeometry>
        </mxCell>
        <mxCell id="Z2USR4ci6b5LXl39ZoTv-19" value="" style="endArrow=classic;html=1;rounded=0;exitX=0.5;exitY=1;exitDx=0;exitDy=0;entryX=0.5;entryY=0;entryDx=0;entryDy=0;" edge="1" parent="1" source="Z2USR4ci6b5LXl39ZoTv-17" target="Z2USR4ci6b5LXl39ZoTv-11">
          <mxGeometry width="50" height="50" relative="1" as="geometry">
            <mxPoint x="420" y="640" as="sourcePoint" />
            <mxPoint x="470" y="590" as="targetPoint" />
          </mxGeometry>
        </mxCell>
        <mxCell id="Z2USR4ci6b5LXl39ZoTv-20" value="" style="endArrow=classic;html=1;rounded=0;exitX=0.5;exitY=1;exitDx=0;exitDy=0;entryX=0;entryY=0.5;entryDx=0;entryDy=0;" edge="1" parent="1" source="Z2USR4ci6b5LXl39ZoTv-11" target="Z2USR4ci6b5LXl39ZoTv-15">
          <mxGeometry width="50" height="50" relative="1" as="geometry">
            <mxPoint x="420" y="770" as="sourcePoint" />
            <mxPoint x="470" y="720" as="targetPoint" />
          </mxGeometry>
        </mxCell>
        <mxCell id="Z2USR4ci6b5LXl39ZoTv-21" value="" style="endArrow=classic;html=1;rounded=0;exitX=0.5;exitY=1;exitDx=0;exitDy=0;" edge="1" parent="1" source="Z2USR4ci6b5LXl39ZoTv-11" target="Z2USR4ci6b5LXl39ZoTv-16">
          <mxGeometry width="50" height="50" relative="1" as="geometry">
            <mxPoint x="420" y="770" as="sourcePoint" />
            <mxPoint x="470" y="720" as="targetPoint" />
          </mxGeometry>
        </mxCell>
        <mxCell id="Z2USR4ci6b5LXl39ZoTv-22" value="" style="endArrow=classic;html=1;rounded=0;exitX=0.5;exitY=1;exitDx=0;exitDy=0;entryX=0.5;entryY=0;entryDx=0;entryDy=0;" edge="1" parent="1" source="Z2USR4ci6b5LXl39ZoTv-11" target="Z2USR4ci6b5LXl39ZoTv-13">
          <mxGeometry width="50" height="50" relative="1" as="geometry">
            <mxPoint x="420" y="770" as="sourcePoint" />
            <mxPoint x="470" y="720" as="targetPoint" />
          </mxGeometry>
        </mxCell>
        <mxCell id="Z2USR4ci6b5LXl39ZoTv-23" value="" style="endArrow=classic;html=1;rounded=0;exitX=0.5;exitY=1;exitDx=0;exitDy=0;entryX=0.5;entryY=0;entryDx=0;entryDy=0;" edge="1" parent="1" source="Z2USR4ci6b5LXl39ZoTv-11" target="Z2USR4ci6b5LXl39ZoTv-14">
          <mxGeometry width="50" height="50" relative="1" as="geometry">
            <mxPoint x="420" y="770" as="sourcePoint" />
            <mxPoint x="470" y="720" as="targetPoint" />
          </mxGeometry>
        </mxCell>
        <mxCell id="Z2USR4ci6b5LXl39ZoTv-24" value="&lt;b&gt;1:N&lt;/b&gt;" style="text;html=1;align=center;verticalAlign=middle;resizable=0;points=[];autosize=1;strokeColor=none;fillColor=none;" vertex="1" parent="1">
          <mxGeometry x="1000" y="425" width="40" height="30" as="geometry" />
        </mxCell>
        <mxCell id="Z2USR4ci6b5LXl39ZoTv-25" value="" style="rhombus;whiteSpace=wrap;html=1;" vertex="1" parent="1">
          <mxGeometry x="-40" y="400" width="80" height="80" as="geometry" />
        </mxCell>
        <mxCell id="Z2USR4ci6b5LXl39ZoTv-26" value="" style="endArrow=classic;html=1;rounded=0;entryX=1;entryY=0.5;entryDx=0;entryDy=0;exitX=0;exitY=0.5;exitDx=0;exitDy=0;" edge="1" parent="1" source="Z2USR4ci6b5LXl39ZoTv-1" target="Z2USR4ci6b5LXl39ZoTv-25">
          <mxGeometry width="50" height="50" relative="1" as="geometry">
            <mxPoint x="420" y="640" as="sourcePoint" />
            <mxPoint x="470" y="590" as="targetPoint" />
          </mxGeometry>
        </mxCell>
        <mxCell id="Z2USR4ci6b5LXl39ZoTv-27" value="" style="endArrow=classic;html=1;rounded=0;exitX=0.5;exitY=1;exitDx=0;exitDy=0;" edge="1" parent="1" source="Z2USR4ci6b5LXl39ZoTv-25" target="Z2USR4ci6b5LXl39ZoTv-12">
          <mxGeometry width="50" height="50" relative="1" as="geometry">
            <mxPoint x="420" y="640" as="sourcePoint" />
            <mxPoint x="470" y="590" as="targetPoint" />
          </mxGeometry>
        </mxCell>
        <mxCell id="Z2USR4ci6b5LXl39ZoTv-28" value="&lt;u&gt;&lt;b&gt;id_trabajador&lt;/b&gt;&lt;/u&gt;" style="ellipse;whiteSpace=wrap;html=1;" vertex="1" parent="1">
          <mxGeometry x="110" y="750" width="100" height="50" as="geometry" />
        </mxCell>
        <mxCell id="Z2USR4ci6b5LXl39ZoTv-29" value="nombre_trabajador" style="ellipse;whiteSpace=wrap;html=1;" vertex="1" parent="1">
          <mxGeometry x="-100" y="805" width="120" height="60" as="geometry" />
        </mxCell>
        <mxCell id="Z2USR4ci6b5LXl39ZoTv-30" value="email" style="ellipse;whiteSpace=wrap;html=1;" vertex="1" parent="1">
          <mxGeometry x="-190" y="770" width="80" height="40" as="geometry" />
        </mxCell>
        <mxCell id="Z2USR4ci6b5LXl39ZoTv-31" value="" style="endArrow=classic;html=1;rounded=0;exitX=0.5;exitY=1;exitDx=0;exitDy=0;entryX=0;entryY=0;entryDx=0;entryDy=0;" edge="1" parent="1" source="Z2USR4ci6b5LXl39ZoTv-12" target="Z2USR4ci6b5LXl39ZoTv-28">
          <mxGeometry width="50" height="50" relative="1" as="geometry">
            <mxPoint x="420" y="640" as="sourcePoint" />
            <mxPoint x="470" y="590" as="targetPoint" />
          </mxGeometry>
        </mxCell>
        <mxCell id="Z2USR4ci6b5LXl39ZoTv-32" value="" style="endArrow=classic;html=1;rounded=0;exitX=0.5;exitY=1;exitDx=0;exitDy=0;entryX=0.5;entryY=0;entryDx=0;entryDy=0;" edge="1" parent="1" source="Z2USR4ci6b5LXl39ZoTv-12" target="Z2USR4ci6b5LXl39ZoTv-29">
          <mxGeometry width="50" height="50" relative="1" as="geometry">
            <mxPoint x="420" y="640" as="sourcePoint" />
            <mxPoint x="470" y="590" as="targetPoint" />
          </mxGeometry>
        </mxCell>
        <mxCell id="Z2USR4ci6b5LXl39ZoTv-33" value="" style="endArrow=classic;html=1;rounded=0;exitX=0.5;exitY=1;exitDx=0;exitDy=0;entryX=0.682;entryY=0.003;entryDx=0;entryDy=0;entryPerimeter=0;" edge="1" parent="1" source="Z2USR4ci6b5LXl39ZoTv-12" target="Z2USR4ci6b5LXl39ZoTv-30">
          <mxGeometry width="50" height="50" relative="1" as="geometry">
            <mxPoint x="420" y="640" as="sourcePoint" />
            <mxPoint x="470" y="590" as="targetPoint" />
          </mxGeometry>
        </mxCell>
        <mxCell id="Z2USR4ci6b5LXl39ZoTv-35" value="&lt;b&gt;1:N&lt;/b&gt;" style="text;html=1;align=center;verticalAlign=middle;resizable=0;points=[];autosize=1;strokeColor=none;fillColor=none;" vertex="1" parent="1">
          <mxGeometry x="-90" y="425" width="40" height="30" as="geometry" />
        </mxCell>
        <mxCell id="Z2USR4ci6b5LXl39ZoTv-39" value="id_sala" style="ellipse;whiteSpace=wrap;html=1;" vertex="1" parent="1">
          <mxGeometry x="430" y="510" width="100" height="50" as="geometry" />
        </mxCell>
        <mxCell id="Z2USR4ci6b5LXl39ZoTv-40" value="id_trabajador" style="ellipse;whiteSpace=wrap;html=1;" vertex="1" parent="1">
          <mxGeometry x="270" y="510" width="100" height="50" as="geometry" />
        </mxCell>
        <mxCell id="Z2USR4ci6b5LXl39ZoTv-41" value="" style="endArrow=classic;html=1;rounded=0;exitX=0.5;exitY=1;exitDx=0;exitDy=0;entryX=0.5;entryY=0;entryDx=0;entryDy=0;" edge="1" parent="1" source="Z2USR4ci6b5LXl39ZoTv-1" target="Z2USR4ci6b5LXl39ZoTv-39">
          <mxGeometry width="50" height="50" relative="1" as="geometry">
            <mxPoint x="420" y="640" as="sourcePoint" />
            <mxPoint x="470" y="590" as="targetPoint" />
          </mxGeometry>
        </mxCell>
        <mxCell id="Z2USR4ci6b5LXl39ZoTv-42" value="" style="endArrow=classic;html=1;rounded=0;exitX=0.5;exitY=1;exitDx=0;exitDy=0;entryX=0.5;entryY=0;entryDx=0;entryDy=0;" edge="1" parent="1" source="Z2USR4ci6b5LXl39ZoTv-1" target="Z2USR4ci6b5LXl39ZoTv-40">
          <mxGeometry width="50" height="50" relative="1" as="geometry">
            <mxPoint x="420" y="640" as="sourcePoint" />
            <mxPoint x="470" y="590" as="targetPoint" />
          </mxGeometry>
        </mxCell>
        <mxCell id="Z2USR4ci6b5LXl39ZoTv-43" value="&lt;b&gt;1&lt;/b&gt;" style="text;html=1;align=center;verticalAlign=middle;resizable=0;points=[];autosize=1;strokeColor=none;fillColor=none;" vertex="1" parent="1">
          <mxGeometry x="5" y="628" width="30" height="30" as="geometry" />
        </mxCell>
        <mxCell id="Z2USR4ci6b5LXl39ZoTv-44" value="&lt;b&gt;1&lt;/b&gt;" style="text;html=1;align=center;verticalAlign=middle;resizable=0;points=[];autosize=1;strokeColor=none;fillColor=none;" vertex="1" parent="1">
          <mxGeometry x="970" y="628" width="30" height="30" as="geometry" />
        </mxCell>
        <mxCell id="Z2USR4ci6b5LXl39ZoTv-45" value="&lt;b&gt;N&lt;/b&gt;" style="text;html=1;align=center;verticalAlign=middle;resizable=0;points=[];autosize=1;strokeColor=none;fillColor=none;" vertex="1" parent="1">
          <mxGeometry x="475" y="408" width="30" height="30" as="geometry" />
        </mxCell>
        <mxCell id="Z2USR4ci6b5LXl39ZoTv-46" value="&lt;b&gt;N&lt;/b&gt;" style="text;html=1;align=center;verticalAlign=middle;resizable=0;points=[];autosize=1;strokeColor=none;fillColor=none;" vertex="1" parent="1">
          <mxGeometry x="305" y="408" width="30" height="30" as="geometry" />
        </mxCell>
        <mxCell id="Z2USR4ci6b5LXl39ZoTv-47" value="departamento" style="ellipse;whiteSpace=wrap;html=1;" vertex="1" parent="1">
          <mxGeometry x="40" y="815" width="100" height="50" as="geometry" />
        </mxCell>
        <mxCell id="Z2USR4ci6b5LXl39ZoTv-48" value="" style="endArrow=classic;html=1;rounded=0;exitX=0.5;exitY=1;exitDx=0;exitDy=0;" edge="1" parent="1" source="Z2USR4ci6b5LXl39ZoTv-12" target="Z2USR4ci6b5LXl39ZoTv-47">
          <mxGeometry width="50" height="50" relative="1" as="geometry">
            <mxPoint x="420" y="770" as="sourcePoint" />
            <mxPoint x="470" y="720" as="targetPoint" />
          </mxGeometry>
        </mxCell>
        <mxCell id="Z2USR4ci6b5LXl39ZoTv-49" value="estado_sala" style="ellipse;whiteSpace=wrap;html=1;" vertex="1" parent="1">
          <mxGeometry x="750" y="740" width="100" height="50" as="geometry" />
        </mxCell>
        <mxCell id="Z2USR4ci6b5LXl39ZoTv-50" value="" style="endArrow=classic;html=1;rounded=0;exitX=0.5;exitY=1;exitDx=0;exitDy=0;entryX=1;entryY=0.5;entryDx=0;entryDy=0;" edge="1" parent="1" source="Z2USR4ci6b5LXl39ZoTv-11" target="Z2USR4ci6b5LXl39ZoTv-49">
          <mxGeometry width="50" height="50" relative="1" as="geometry">
            <mxPoint x="420" y="640" as="sourcePoint" />
            <mxPoint x="470" y="590" as="targetPoint" />
          </mxGeometry>
        </mxCell>
      </root>
    </mxGraphModel>
  </diagram>
</mxfile>
